<?xml version="1.0" encoding="UTF-8"?>
<svg xmlns="http://www.w3.org/2000/svg" viewBox="0 0 1280 720">
  
  <rect width="1280" height="720" fill="#FFFFFF" />
  
  
  <rect x="0" y="0" width="1280" height="70" fill="#003366" />
  <rect x="0" y="0" width="6" height="70" fill="#CC0000" />
  <text x="40" y="46" fill="#FFFFFF" font-family="Microsoft YaHei, Arial, sans-serif" font-size="28" font-weight="bold">
    فهرس المحتويات
  </text>
  <text x="1200" y="46" text-anchor="end" fill="#FFFFFF" font-family="Georgia, Microsoft YaHei, serif" font-size="18" font-weight="bold">MATAX</text>
  
  
  <path fill="#F8FAFC" stroke="#E2E8F0" stroke-width="1" d="M90,100 H610 A10,10 0 0 1 620,110 V185 A10,10 0 0 1 610,195 H90 A10,10 0 0 1 80,185 V110 A10,10 0 0 1 90,100 Z" />
  <path fill="#003366" d="M83,100 H83 A3,3 0 0 1 86,103 V192 A3,3 0 0 1 83,195 H83 A3,3 0 0 1 80,192 V103 A3,3 0 0 1 83,100 Z" />
  <text x="120" y="148" fill="#003366" font-family="Georgia, Microsoft YaHei, serif" font-size="40" font-weight="bold">01</text>
  <text x="185" y="148" fill="#1E293B" font-family="Microsoft YaHei, Arial, sans-serif" font-size="22" font-weight="bold">المشكلة والحل المقترح</text>
  <text x="120" y="178" fill="#64748B" font-family="Microsoft YaHei, Arial, sans-serif" font-size="14">تعقيد الإجراءات الجبائية وأهمية الحلول الرقمية</text>
  
  
  <path fill="#F8FAFC" stroke="#E2E8F0" stroke-width="1" d="M670,100 H1190 A10,10 0 0 1 1200,110 V185 A10,10 0 0 1 1190,195 H670 A10,10 0 0 1 660,185 V110 A10,10 0 0 1 670,100 Z" />
  <path fill="#003366" d="M663,100 H663 A3,3 0 0 1 666,103 V192 A3,3 0 0 1 663,195 H663 A3,3 0 0 1 660,192 V103 A3,3 0 0 1 663,100 Z" />
  <text x="700" y="148" fill="#003366" font-family="Georgia, Microsoft YaHei, serif" font-size="40" font-weight="bold">02</text>
  <text x="765" y="148" fill="#1E293B" font-family="Microsoft YaHei, Arial, sans-serif" font-size="22" font-weight="bold">الجوانب الابتكارية</text>
  <text x="700" y="178" fill="#64748B" font-family="Microsoft YaHei, Arial, sans-serif" font-size="14">ما يميز MATAX عن الحلول التقليدية</text>
  
  
  <path fill="#F8FAFC" stroke="#E2E8F0" stroke-width="1" d="M90,215 H610 A10,10 0 0 1 620,225 V300 A10,10 0 0 1 610,310 H90 A10,10 0 0 1 80,300 V225 A10,10 0 0 1 90,215 Z" />
  <path fill="#0066CC" d="M83,215 H83 A3,3 0 0 1 86,218 V307 A3,3 0 0 1 83,310 H83 A3,3 0 0 1 80,307 V218 A3,3 0 0 1 83,215 Z" />
  <text x="120" y="263" fill="#003366" font-family="Georgia, Microsoft YaHei, serif" font-size="40" font-weight="bold">03</text>
  <text x="185" y="263" fill="#1E293B" font-family="Microsoft YaHei, Arial, sans-serif" font-size="22" font-weight="bold">السوق والنموذج التجاري</text>
  <text x="120" y="293" fill="#64748B" font-family="Microsoft YaHei, Arial, sans-serif" font-size="14">السوق المستهدف ومصادر الإيرادات</text>
  
  
  <path fill="#F8FAFC" stroke="#E2E8F0" stroke-width="1" d="M670,215 H1190 A10,10 0 0 1 1200,225 V300 A10,10 0 0 1 1190,310 H670 A10,10 0 0 1 660,300 V225 A10,10 0 0 1 670,215 Z" />
  <path fill="#0066CC" d="M663,215 H663 A3,3 0 0 1 666,218 V307 A3,3 0 0 1 663,310 H663 A3,3 0 0 1 660,307 V218 A3,3 0 0 1 663,215 Z" />
  <text x="700" y="263" fill="#003366" font-family="Georgia, Microsoft YaHei, serif" font-size="40" font-weight="bold">04</text>
  <text x="765" y="263" fill="#1E293B" font-family="Microsoft YaHei, Arial, sans-serif" font-size="22" font-weight="bold">الدراسة المالية</text>
  <text x="700" y="293" fill="#64748B" font-family="Microsoft YaHei, Arial, sans-serif" font-size="14">الجدوى المالية ومؤشرات الأداء</text>
  
  
  <path fill="#F8FAFC" stroke="#E2E8F0" stroke-width="1" d="M90,330 H610 A10,10 0 0 1 620,340 V415 A10,10 0 0 1 610,425 H90 A10,10 0 0 1 80,415 V340 A10,10 0 0 1 90,330 Z" />
  <path fill="#0099AA" d="M83,330 H83 A3,3 0 0 1 86,333 V422 A3,3 0 0 1 83,425 H83 A3,3 0 0 1 80,422 V333 A3,3 0 0 1 83,330 Z" />
  <text x="120" y="378" fill="#003366" font-family="Georgia, Microsoft YaHei, serif" font-size="40" font-weight="bold">05</text>
  <text x="185" y="378" fill="#1E293B" font-family="Microsoft YaHei, Arial, sans-serif" font-size="22" font-weight="bold">النموذج التجريبي</text>
  <text x="120" y="408" fill="#64748B" font-family="Microsoft YaHei, Arial, sans-serif" font-size="14">عرض المنصة والخصائص الرئيسية</text>
  
  
  <path fill="#F8FAFC" stroke="#E2E8F0" stroke-width="1" d="M670,330 H1190 A10,10 0 0 1 1200,340 V415 A10,10 0 0 1 1190,425 H670 A10,10 0 0 1 660,415 V340 A10,10 0 0 1 670,330 Z" />
  <path fill="#0099AA" d="M663,330 H663 A3,3 0 0 1 666,333 V422 A3,3 0 0 1 663,425 H663 A3,3 0 0 1 660,422 V333 A3,3 0 0 1 663,330 Z" />
  <text x="700" y="378" fill="#003366" font-family="Georgia, Microsoft YaHei, serif" font-size="40" font-weight="bold">06</text>
  <text x="765" y="378" fill="#1E293B" font-family="Microsoft YaHei, Arial, sans-serif" font-size="22" font-weight="bold">المراحل التنفيذية</text>
  <text x="700" y="408" fill="#64748B" font-family="Microsoft YaHei, Arial, sans-serif" font-size="14">خطة العمل والخريطة الزمنية</text>
  
  
  <line x1="40" y1="460" x2="1240" y2="460" stroke="#E2E8F0" stroke-width="1" />
  
  
  <path fill="#F8FAFC" d="M448,480 H832 A8,8 0 0 1 840,488 V512 A8,8 0 0 1 832,520 H448 A8,8 0 0 1 440,512 V488 A8,8 0 0 1 448,480 Z" />
  <text x="640" y="506" text-anchor="middle" fill="#94A3B8" font-family="Microsoft YaHei, Arial, sans-serif" font-size="14">مدة العرض: 15 دقيقة</text>
  
  <text x="1220" y="698" text-anchor="end" fill="#64748B" font-family="Microsoft YaHei, Arial, sans-serif" font-size="14">02</text>
</svg>